<?xml version="1.0" encoding="UTF-8"?>
<svg version="1.1" xmlns="http://www.w3.org/2000/svg" width="460" height="460">
<path d="M0 0 C151.8 0 303.6 0 460 0 C460 151.8 460 303.6 460 460 C308.2 460 156.4 460 0 460 C0 308.2 0 156.4 0 0 Z " fill="#7F38C9" transform="translate(0,0)"/>
<path d="M0 0 C5.94 0 11.88 0 18 0 C18 5.61 18 11.22 18 17 C20.64 17 23.28 17 26 17 C27 18 27 18 27.09765625 19.84765625 C27.06510417 21.8984375 27.03255208 23.94921875 27 26 C29.64 26 32.28 26 35 26 C35 28.97 35 31.94 35 35 C36.29736084 34.99476318 37.59472168 34.98952637 38.93139648 34.98413086 C43.72647415 34.96608531 48.5215488 34.95456963 53.31665039 34.94506836 C55.39543156 34.94002712 57.47420916 34.93319426 59.55297852 34.92456055 C62.53402586 34.91248578 65.51502649 34.90676976 68.49609375 34.90234375 C69.89921059 34.89460182 69.89921059 34.89460182 71.33067322 34.88670349 C72.19149002 34.88662796 73.05230682 34.88655243 73.93920898 34.88647461 C74.70087875 34.884254 75.46254852 34.88203339 76.24729919 34.87974548 C78 35 78 35 79 36 C79.08669432 37.4887186 79.10703494 38.981445 79.09765625 40.47265625 C79.09515869 41.28226807 79.09266113 42.09187988 79.09008789 42.92602539 C79.08098389 43.96106201 79.07187988 44.99609863 79.0625 46.0625 C79.041875 49.341875 79.02125 52.62125 79 56 C86.59 56 94.18 56 102 56 C102 70.52 102 85.04 102 100 C124.77 100 147.54 100 171 100 C171 107.26 171 114.52 171 122 C178.59 122 186.18 122 194 122 C194 129.26 194 136.52 194 144 C201.59 144 209.18 144 217 144 C217 165.45 217 186.9 217 209 C209.41 209 201.82 209 194 209 C194 216.26 194 223.52 194 231 C186.41 231 178.82 231 171 231 C171 238.26 171 245.52 171 253 C109.95 253 48.9 253 -14 253 C-14 245.74 -14 238.48 -14 231 C-21.92 231 -29.84 231 -38 231 C-38 223.74 -38 216.48 -38 209 C-45.59 209 -53.18 209 -61 209 C-61 201.74 -61 194.48 -61 187 C-68.59 187 -76.18 187 -84 187 C-84 172.81 -84 158.62 -84 144 C-91.59 144 -99.18 144 -107 144 C-107 99.12 -107 54.24 -107 8 C-104.03 8 -101.06 8 -98 8 C-98 11.3 -98 14.6 -98 18 C-95.03 18 -92.06 18 -89 18 C-89 20.64 -89 23.28 -89 26 C-86.03 26 -83.06 26 -80 26 C-80 28.97 -80 31.94 -80 35 C-59.54 35 -39.08 35 -18 35 C-18 32.03 -18 29.06 -18 26 C-15.03 26 -12.06 26 -9 26 C-9 23.36 -9 20.72 -9 18 C-6.03 18 -3.06 18 0 18 C0 12.06 0 6.12 0 0 Z " fill="#C5A87F" transform="translate(174,162)"/>
<path d="M0 0 C5.94 0 11.88 0 18 0 C18 5.61 18 11.22 18 17 C20.64 17 23.28 17 26 17 C27 18 27 18 27.09765625 19.84765625 C27.06510417 21.8984375 27.03255208 23.94921875 27 26 C29.64 26 32.28 26 35 26 C35 28.97 35 31.94 35 35 C36.29736084 34.99476318 37.59472168 34.98952637 38.93139648 34.98413086 C43.72647415 34.96608531 48.5215488 34.95456963 53.31665039 34.94506836 C55.39543156 34.94002712 57.47420916 34.93319426 59.55297852 34.92456055 C62.53402586 34.91248578 65.51502649 34.90676976 68.49609375 34.90234375 C69.89921059 34.89460182 69.89921059 34.89460182 71.33067322 34.88670349 C72.19149002 34.88662796 73.05230682 34.88655243 73.93920898 34.88647461 C74.70087875 34.884254 75.46254852 34.88203339 76.24729919 34.87974548 C78 35 78 35 79 36 C79.08669432 37.4887186 79.10703494 38.981445 79.09765625 40.47265625 C79.09515869 41.28226807 79.09266113 42.09187988 79.09008789 42.92602539 C79.08098389 43.96106201 79.07187988 44.99609863 79.0625 46.0625 C79.041875 49.341875 79.02125 52.62125 79 56 C86.59 56 94.18 56 102 56 C102 70.52 102 85.04 102 100 C124.77 100 147.54 100 171 100 C171 107.26 171 114.52 171 122 C178.59 122 186.18 122 194 122 C194 129.26 194 136.52 194 144 C201.59 144 209.18 144 217 144 C217 165.45 217 186.9 217 209 C209.41 209 201.82 209 194 209 C194 201.74 194 194.48 194 187 C155.72 187 117.44 187 78 187 C78 180.07 78 173.14 78 166 C70.41 166 62.82 166 55 166 C55 158.74 55 151.48 55 144 C47.41 144 39.82 144 32 144 C32 136.74 32 129.48 32 122 C16.82 122 1.64 122 -14 122 C-14 107.48 -14 92.96 -14 78 C-21.92 78 -29.84 78 -38 78 C-38 64.14 -38 50.28 -38 36 C-31.4 36 -24.8 36 -18 36 C-18 32.7 -18 29.4 -18 26 C-15.03 26 -12.06 26 -9 26 C-9 23.36 -9 20.72 -9 18 C-6.03 18 -3.06 18 0 18 C0 12.06 0 6.12 0 0 Z " fill="#DBBF98" transform="translate(174,162)"/>
<path d="M0 0 C53.79 0 107.58 0 163 0 C163 7.26 163 14.52 163 22 C170.59 22 178.18 22 186 22 C186 43.45 186 64.9 186 87 C178.41 87 170.82 87 163 87 C163 94.26 163 101.52 163 109 C94.03 109 25.06 109 -46 109 C-46 87.22 -46 65.44 -46 43 C-38.41 43 -30.82 43 -23 43 C-23 36.07 -23 29.14 -23 22 C-15.41 22 -7.82 22 0 22 C0 14.74 0 7.48 0 0 Z " fill="#DBBF98" transform="translate(113,44)"/>
<path d="M0 0 C76.23 0 152.46 0 231 0 C231 5.61 231 11.22 231 17 C228.36 17 225.72 17 223 17 C223 20.3 223 23.6 223 27 C219.7 27 216.4 27 213 27 C213 29.64 213 32.28 213 35 C210.36 35 207.72 35 205 35 C205 37.97 205 40.94 205 44 C184.21 44 163.42 44 142 44 C142 41.03 142 38.06 142 35 C139.36 35 136.72 35 134 35 C133.67 32.36 133.34 29.72 133 27 C130.36 26.67 127.72 26.34 125 26 C125 20.39 125 14.78 125 9 C119.06 9 113.12 9 107 9 C107 14.94 107 20.88 107 27 C104.03 27 101.06 27 98 27 C98 29.64 98 32.28 98 35 C95.03 35 92.06 35 89 35 C89 37.97 89 40.94 89 44 C68.54 44 48.08 44 27 44 C27 41.03 27 38.06 27 35 C24.03 35 21.06 35 18 35 C18 32.36 18 29.72 18 27 C15.03 27 12.06 27 9 27 C9 23.7 9 20.4 9 17 C6.03 17 3.06 17 0 17 C0 11.39 0 5.78 0 0 Z " fill="#020101" transform="translate(67,153)"/>
<path d="M0 0 C15.51 0 31.02 0 47 0 C47 14.19 47 28.38 47 43 C39.08 43 31.16 43 23 43 C23 64.45 23 85.9 23 108 C69.2 108 115.4 108 163 108 C163 108.33 163 108.66 163 109 C94.03 109 25.06 109 -46 109 C-46 87.22 -46 65.44 -46 43 C-38.41 43 -30.82 43 -23 43 C-23 36.07 -23 29.14 -23 22 C-15.41 22 -7.82 22 0 22 C0 14.74 0 7.48 0 0 Z " fill="#C4A77E" transform="translate(113,44)"/>
<path d="M0 0 C38.28 0 76.56 0 116 0 C116 7.26 116 14.52 116 22 C123.59 22 131.18 22 139 22 C139 43.45 139 64.9 139 87 C131.41 87 123.82 87 116 87 C116 93.93 116 100.86 116 108 C108.08 108 100.16 108 92 108 C92 101.07 92 94.14 92 87 C99.59 87 107.18 87 115 87 C115 65.55 115 44.1 115 22 C77.05 22 39.1 22 0 22 C0 14.74 0 7.48 0 0 Z " fill="#E2D1B4" transform="translate(160,44)"/>
<path d="M0 0 C61.05 0 122.1 0 185 0 C185 7.26 185 14.52 185 22 C123.95 22 62.9 22 0 22 C0 14.74 0 7.48 0 0 Z " fill="#BA9663" transform="translate(160,393)"/>
<path d="M0 0 C2.97 0 5.94 0 9 0 C9 3.3 9 6.6 9 10 C11.97 10 14.94 10 18 10 C18 12.64 18 15.28 18 18 C19.65 18 21.3 18 23 18 C23 56.94 23 95.88 23 136 C15.41 136 7.82 136 0 136 C0 91.12 0 46.24 0 0 Z " fill="#AF8B5B" transform="translate(67,170)"/>
<path d="M0 0 C22.77 0 45.54 0 69 0 C69 14.52 69 29.04 69 44 C53.49 44 37.98 44 22 44 C22 36.74 22 29.48 22 22 C14.74 22 7.48 22 0 22 C0 14.74 0 7.48 0 0 Z " fill="#E2D2B4" transform="translate(276,262)"/>
<path d="M0 0 C7.59 0 15.18 0 23 0 C23 21.45 23 42.9 23 65 C84.38 65 145.76 65 209 65 C209 65.33 209 65.66 209 66 C140.03 66 71.06 66 0 66 C0 44.22 0 22.44 0 0 Z " fill="#AB895C" transform="translate(67,87)"/>
<path d="M0 0 C7.92 0 15.84 0 24 0 C24 6.6 24 13.2 24 20 C31.59 20 39.18 20 47 20 C47 34.52 47 49.04 47 64 C39.08 64 31.16 64 23 64 C23 49.48 23 34.96 23 20 C15.41 20 7.82 20 0 20 C0 13.4 0 6.8 0 0 Z " fill="#E2D2B4" transform="translate(229,198)"/>
<path d="M0 0 C7.26 0 14.52 0 22 0 C22 21.45 22 42.9 22 65 C14.74 65 7.48 65 0 65 C0 43.55 0 22.1 0 0 Z " fill="#E2D2B5" transform="translate(369,306)"/>
<path d="M0 0 C7.92 0 15.84 0 24 0 C24 7.26 24 14.52 24 22 C31.59 22 39.18 22 47 22 C47 29.26 47 36.52 47 44 C39.08 44 31.16 44 23 44 C23 36.74 23 29.48 23 22 C15.41 22 7.82 22 0 22 C0 14.74 0 7.48 0 0 Z " fill="#B08C5E" transform="translate(113,349)"/>
<path d="M0 0 C15.18 0 30.36 0 46 0 C46 7.26 46 14.52 46 22 C30.82 22 15.64 22 0 22 C0 14.74 0 7.48 0 0 Z " fill="#B08C5B" transform="translate(160,393)"/>
<path d="M0 0 C15.18 0 30.36 0 46 0 C46 7.26 46 14.52 46 22 C30.82 22 15.64 22 0 22 C0 14.74 0 7.48 0 0 Z " fill="#F7F9EF" transform="translate(299,284)"/>
<path d="M0 0 C15.18 0 30.36 0 46 0 C46 7.26 46 14.52 46 22 C30.82 22 15.64 22 0 22 C0 14.74 0 7.48 0 0 Z " fill="#BA9664" transform="translate(113,44)"/>
<path d="M0 0 C7.59 0 15.18 0 23 0 C23 14.19 23 28.38 23 43 C15.41 43 7.82 43 0 43 C0 28.81 0 14.62 0 0 Z " fill="#B08C5C" transform="translate(90,306)"/>
<path d="M0 0 C3.3 0 6.6 0 10 0 C10 2.64 10 5.28 10 8 C12.64 8 15.28 8 18 8 C18 5.36 18 2.72 18 0 C20.97 0 23.94 0 27 0 C27 2.64 27 5.28 27 8 C29.97 8 32.94 8 36 8 C36 10.97 36 13.94 36 17 C38.97 17 41.94 17 45 17 C45 19.97 45 22.94 45 26 C42.03 26 39.06 26 36 26 C36 23.36 36 20.72 36 18 C33.03 18 30.06 18 27 18 C27 20.64 27 23.28 27 26 C24.03 26 21.06 26 18 26 C18 23.36 18 20.72 18 18 C16.700625 18.020625 15.40125 18.04125 14.0625 18.0625 C12.70834367 18.08399454 11.35243917 18.07148199 10 18 C9 17 9 17 8.90234375 14.93359375 C8.95117188 11.46679688 8.95117188 11.46679688 9 8 C6.03 8 3.06 8 0 8 C0 5.36 0 2.72 0 0 Z " fill="#CDCDCD" transform="translate(210,162)"/>
<path d="M0 0 C7.92 0 15.84 0 24 0 C24 6.6 24 13.2 24 20 C31.59 20 39.18 20 47 20 C47 34.52 47 49.04 47 64 C46.67 64 46.34 64 46 64 C46 49.81 46 35.62 46 21 C42.679375 21.020625 39.35875 21.04125 35.9375 21.0625 C23.93687252 21.09827328 11.98239157 20.62073444 0 20 C0 13.4 0 6.8 0 0 Z " fill="#DCC9B7" transform="translate(229,198)"/>
<path d="M0 0 C3.3 0 6.6 0 10 0 C10 2.64 10 5.28 10 8 C12.97 8 15.94 8 19 8 C19 10.97 19 13.94 19 17 C21.64 17 24.28 17 27 17 C27 19.97 27 22.94 27 26 C24.03 26 21.06 26 18 26 C18 23.36 18 20.72 18 18 C15.36 18 12.72 18 10 18 C10 20.64 10 23.28 10 26 C6.7 26 3.4 26 0 26 C0 23.36 0 20.72 0 18 C-2.64 18 -5.28 18 -8 18 C-8 14.7 -8 11.4 -8 8 C-5.36 8 -2.72 8 0 8 C0 5.36 0 2.72 0 0 Z " fill="#797979" transform="translate(102,162)"/>
<path d="M0 0 C7.59 0 15.18 0 23 0 C23 7.26 23 14.52 23 22 C15.41 22 7.82 22 0 22 C0 14.74 0 7.48 0 0 Z " fill="#BA9663" transform="translate(345,371)"/>
<path d="M0 0 C7.59 0 15.18 0 23 0 C23 7.26 23 14.52 23 22 C15.41 22 7.82 22 0 22 C0 14.74 0 7.48 0 0 Z " fill="#E2D2B5" transform="translate(345,284)"/>
<path d="M0 0 C7.59 0 15.18 0 23 0 C23 6.93 23 13.86 23 21 C15.41 21 7.82 21 0 21 C0 14.07 0 7.14 0 0 Z " fill="#B08C5C" transform="translate(90,66)"/>
<path d="M0 0 C2.97 0 5.94 0 9 0 C9 5.61 9 11.22 9 17 C6.03 17 3.06 17 0 17 C0 11.39 0 5.78 0 0 Z " fill="#0D0D0D" transform="translate(228,162)"/>
<path d="M0 0 C3.3 0 6.6 0 10 0 C10 2.64 10 5.28 10 8 C12.64 8 15.28 8 18 8 C18 8.33 18 8.66 18 9 C15.36 9 12.72 9 10 9 C10 11.64 10 14.28 10 17 C9.67 17 9.34 17 9 17 C9 14.03 9 11.06 9 8 C6.03 8 3.06 8 0 8 C0 5.36 0 2.72 0 0 Z " fill="#DEDEDE" transform="translate(210,162)"/>
<path d="M0 0 C2.97 0 5.94 0 9 0 C9 2.64 9 5.28 9 8 C6.03 8 3.06 8 0 8 C0 5.36 0 2.72 0 0 Z " fill="#FFFFFF" transform="translate(246,180)"/>
<path d="M0 0 C2.97 0 5.94 0 9 0 C9 2.64 9 5.28 9 8 C6.03 8 3.06 8 0 8 C0 5.36 0 2.72 0 0 Z " fill="#F7F7F7" transform="translate(103,180)"/>
<path d="M0 0 C2.64 0 5.28 0 8 0 C8 2.97 8 5.94 8 9 C5.36 9 2.72 9 0 9 C0 6.03 0 3.06 0 0 Z " fill="#F7F7F7" transform="translate(112,170)"/>
<path d="M0 0 C2.97 0 5.94 0 9 0 C9 2.64 9 5.28 9 8 C6.03 8 3.06 8 0 8 C0 5.36 0 2.72 0 0 Z " fill="#F7F7F7" transform="translate(228,162)"/>
<path d="M0 0 C2.97 0 5.94 0 9 0 C9 2.64 9 5.28 9 8 C6.03 8 3.06 8 0 8 C0 5.36 0 2.72 0 0 Z " fill="#F7F7F7" transform="translate(103,162)"/>
<path d="M0 0 C2.97 0 5.94 0 9 0 C9 2.64 9 5.28 9 8 C6.03 8 3.06 8 0 8 C0 5.36 0 2.72 0 0 Z " fill="#FFFFFF" transform="translate(85,162)"/>
<path d="M0 0 C2.64 0 5.28 0 8 0 C8 2.64 8 5.28 8 8 C5.36 8 2.72 8 0 8 C0 5.36 0 2.72 0 0 Z " fill="#FFFFFF" transform="translate(229,180)"/>
<path d="M0 0 C2.64 0 5.28 0 8 0 C8 2.64 8 5.28 8 8 C5.36 8 2.72 8 0 8 C0 5.36 0 2.72 0 0 Z " fill="#FFFFFF" transform="translate(121,180)"/>
<path d="M0 0 C2.64 0 5.28 0 8 0 C8 2.64 8 5.28 8 8 C5.36 8 2.72 8 0 8 C0 5.36 0 2.72 0 0 Z " fill="#FFFFFF" transform="translate(238,171)"/>
<path d="M0 0 C2.64 0 5.28 0 8 0 C8 2.64 8 5.28 8 8 C5.36 8 2.72 8 0 8 C0 5.36 0 2.72 0 0 Z " fill="#000000" transform="translate(103,171)"/>
<path d="M0 0 C2.64 0 5.28 0 8 0 C8 2.64 8 5.28 8 8 C5.36 8 2.72 8 0 8 C0 5.36 0 2.72 0 0 Z " fill="#FFFFFF" transform="translate(94,171)"/>
</svg>
